<svg width="519" height="412" viewBox="0 0 519 412" fill="none" xmlns="http://www.w3.org/2000/svg">
<g clip-path="url(#clip0_221_9595)">
<path d="M202.895 7.37988C207.713 12.1813 204.739 17.7088 203.713 23.177L258.422 206.341C261.277 206.652 260.132 206.282 260.593 204.755C279.018 144.293 296.52 83.5499 315.287 23.177C315.941 20.8949 313.904 19.3241 313.622 17.1753C311.257 -0.340863 335.526 1.65971 334.099 16.049L329.786 24.2143C336.775 25.5925 343.764 27.7117 350.873 28.5267C364.791 30.1123 378.532 27.9636 392.897 29.7567C415.069 32.513 449.851 42.2788 437.271 71.665C448.245 77.3852 459.547 82.6608 469.139 90.6038C478.507 98.3542 483.98 108.046 494.865 114.522C502.375 118.997 510.137 121.279 518.985 121.205L471.354 269.855C469.287 271.322 442.55 256.177 438.624 253.525C418.4 239.847 415.664 226.332 389.953 214.743C386.755 213.306 373.208 209.231 372.182 208.208C368.375 204.429 372.123 189.655 374.101 184.764C343.898 173.457 311.51 180.541 281.114 170.745L265.218 226.05L319.852 406.458C320.67 411.229 313.741 409.703 310.811 411.97L260.548 246.174L209.542 410.311L208.144 411.97L198.984 408.221L253.723 226.065L237.841 170.76C207.46 180.689 175.027 173.368 144.855 184.779C146.818 189.655 150.58 204.444 146.773 208.223C145.747 209.245 132.2 213.306 129.003 214.758C103.752 226.139 102.979 237.061 84.2273 250.946C79.9743 254.103 49.9802 271.53 47.6009 269.855L0 121.22C9.17518 121.324 17.0566 118.819 24.7745 114.122C35.2137 107.779 40.7307 98.1467 49.8464 90.6186C58.9621 83.0905 70.7842 77.0295 81.7141 71.6799C69.1484 42.2788 103.931 32.513 126.103 29.7715C140.423 27.9932 154.253 30.0827 168.127 28.5415C175.25 27.7561 182.225 25.5925 189.229 24.2292L184.916 16.0639C183.92 6.28326 196.307 0.829843 202.895 7.39469V7.37988ZM179.489 103.971C176.172 92.2487 172.261 80.7343 167.592 69.5015C172.291 69.2643 176.336 70.7907 181.139 70.6129C189.08 70.3313 197.066 65.8115 205.438 67.323L194.523 29.7122C181.957 31.535 169.674 35.9362 156.781 35.0175L166.506 68.4048C154.06 70.4943 141.063 70.361 129.107 74.8067L136.022 105.616C135.903 106.771 123.605 110.002 121.106 110.98C117.567 112.373 112.705 115.974 109.686 116.848C107.485 117.486 108.407 116.315 108.095 115.322C104.868 104.652 100.6 93.5232 99.5886 82.5422C101.224 80.023 122.95 77.2963 126.802 75.7255C127.843 75.2957 128.958 74.7474 128.497 73.4433L115.664 38.2332C92.6292 41.3304 72.6282 57.335 95.1274 78.0965C91.9897 77.9187 90.9785 75.5032 87.2906 76.1256C83.0822 76.8517 76.0633 82.6163 71.3642 83.5648L80.8516 116.567L79.5281 119.101L53.5045 137.373C50.7535 136.795 45.8759 112.595 44.4037 108.683C43.9725 107.527 44.9539 106.86 42.6787 107.216C33.6969 116.685 21.9937 125.117 8.59523 126.599L19.421 164.314C21.0419 165.707 29.429 159.557 31.2135 158.297C38.1283 153.363 45.1026 144.871 51.2888 140.603C52.2108 139.966 52.3595 139.107 53.9953 139.551L65.4457 170.76C57.4453 181.963 44.0617 191.537 30.2171 194.5L40.002 226.791C42.9613 228.895 71.3939 210.505 74.0111 205.289C81.4316 216.255 82.6212 230.111 83.7365 242.974C94.6218 235.549 98.5328 221.204 112.318 217.025L102.741 183.327L125.24 173.902C126.832 167.885 117.642 151.644 121.047 147.642C123.56 144.693 144.557 137.654 146.892 139.655L156.766 175.102C170.15 171.901 184.009 170.671 197.809 170.79L188.084 135.239C193.407 135.461 223.357 135.15 224.74 130.215L215.163 99.0655C206.464 99.5397 197.631 103.081 188.485 103.852C185.437 104.104 182.448 103.852 179.429 103.985C182.344 114.255 184.559 124.821 186.998 135.224L146.952 137.995L136.185 107.216C150.416 103.452 164.99 104.667 179.429 103.971H179.489ZM371.944 138.455C376.941 139.344 396.094 144.353 398.459 148.161C400.689 151.747 392.139 168.448 393.685 173.887L416.184 183.312L406.608 217.011C420.66 221.086 424.215 236.231 435.71 242.974C435.62 230.17 437.851 216.092 444.914 205.289C447.547 210.49 475.964 228.881 478.924 226.791L488.709 194.5C474.596 191.744 463.101 182.067 453.525 171.886L464.93 139.551C466.566 139.107 466.715 139.981 467.637 140.603C473.823 144.871 480.812 153.363 487.712 158.297C489.497 159.572 497.884 165.722 499.505 164.314L510.33 126.599C496.932 125.117 485.229 116.685 476.247 107.216C473.987 106.86 474.968 107.542 474.522 108.683C473.05 112.61 468.172 136.795 465.421 137.373C458.61 131.771 445.747 125.577 439.992 119.62C439.115 118.716 437.925 118.078 438.089 116.567L447.591 83.5648C442.267 82.4237 436.914 77.0147 431.65 76.1404C427.947 75.518 426.98 77.9039 423.828 78.0965C445.524 57.7055 427.56 42.3677 404.808 38.2925L390.31 74.3028L419.367 82.5422C420.839 84.8096 412.273 110.684 410.861 115.322C410.563 116.315 411.485 117.486 409.27 116.848C406.251 115.974 401.388 112.373 397.849 110.98C395.351 110.002 383.053 106.771 382.934 105.616L389.849 74.8067C377.893 70.3461 364.896 70.4795 352.449 68.4048L362.174 35.0175C349.281 35.9511 336.998 31.535 324.433 29.7122L313.518 67.323C321.905 65.8115 329.875 70.3313 337.816 70.6129C342.619 70.7759 346.649 69.2643 351.363 69.5015C346.679 80.7343 342.798 92.2487 339.467 103.971C336.448 103.822 333.459 104.089 330.411 103.837C320.983 103.037 312.09 99.5842 302.721 98.6061L294.156 130.2C295.554 135.194 325.399 135.535 330.812 135.224L321.087 170.775C334.887 170.656 348.761 171.886 362.13 175.087C363.661 173.961 370.532 143.123 371.9 138.455H371.944ZM155.696 174.02C148.989 175.888 128.378 174.435 128.631 184.246C128.795 190.736 139.011 195.345 140.572 202.014C142.312 202.31 141.643 200.532 141.673 199.317C141.806 192.944 139.531 188.469 136.349 183.149C136.602 180.037 153.866 177.325 155.696 174.02ZM388.971 179.666C384.718 175.206 370.115 175.843 364.39 174.006C363.81 177.221 365.238 175.71 366.918 176.273C369.639 177.192 382.265 181.015 382.755 183.223C379.097 189.166 376.361 194.737 377.372 201.999L389.521 187.728C390.726 185.594 390.681 181.445 388.971 179.652V179.666Z" fill="#292929"/>
<path d="M339.512 103.971C353.951 104.667 368.539 103.452 382.755 107.216C379.201 117.53 375.008 127.992 371.944 138.455C359.26 136.202 344.82 136.084 331.942 135.209C334.292 124.791 336.582 114.225 339.512 103.971Z" fill="#292929"/>
<path d="M179.489 103.971C182.507 103.822 185.496 104.089 188.545 103.837C197.675 103.067 206.523 99.5249 215.223 99.0507L224.799 130.2C223.416 135.15 193.482 135.446 188.143 135.224L197.869 170.775C184.069 170.656 170.194 171.886 156.826 175.087L146.952 139.64C144.617 137.64 123.62 144.679 121.107 147.628C117.701 151.629 126.891 167.87 125.3 173.887L102.801 183.312L112.377 217.011C98.5924 221.19 94.6814 235.534 83.7961 242.959C82.6808 230.096 81.4912 216.24 74.0707 205.274C71.4386 210.475 43.0208 228.866 40.0616 226.776L30.2767 194.486C44.1064 191.522 57.5048 181.934 65.5052 170.745L54.0548 139.536C52.4191 139.092 52.2704 139.966 51.3484 140.589C45.1622 144.871 38.173 153.348 31.273 158.283C29.4885 159.557 21.1015 165.707 19.4806 164.299L8.65479 126.585C22.0532 125.103 33.7564 116.671 42.7383 107.201C44.9986 106.845 44.0172 107.527 44.4633 108.668C45.9355 112.595 50.813 136.78 53.5641 137.358L79.5877 119.086L80.9112 116.552L71.4237 83.5499C76.1229 82.5867 83.1418 76.8369 87.3502 76.1107C91.0381 75.4735 92.0493 77.889 95.187 78.0817C72.6877 57.3201 92.6887 41.3155 115.723 38.2184L128.557 73.4285C129.018 74.7326 127.902 75.2809 126.861 75.7106C123.01 77.2814 101.284 80.0082 99.6482 82.5274C100.659 93.5083 104.927 104.637 108.154 115.307C108.452 116.3 107.53 117.471 109.745 116.834C112.764 115.959 117.627 112.358 121.166 110.965C123.664 109.987 135.962 106.757 136.081 105.601L129.166 74.7918C141.122 70.3313 154.119 70.4647 166.566 68.39L156.841 35.0026C169.733 35.9362 182.017 31.5201 194.582 29.6974L205.497 67.3082C197.11 65.7967 189.14 70.3165 181.199 70.598C176.396 70.761 172.366 69.2495 167.652 69.4866C172.321 80.7195 176.232 92.2339 179.548 103.956C165.109 104.652 150.521 103.437 136.304 107.201L147.071 137.98L187.117 135.209C184.693 124.806 182.463 114.24 179.548 103.971H179.489ZM104.868 109.365L82.2049 118.597C86.4728 128.778 93.1646 138.751 91.9155 150.31L113.448 140.514L104.868 109.365ZM90.815 152.459C88.2275 150.147 70.7992 170.997 67.1559 172.553L74.6209 204.162L89.2387 190.188L100.555 183.653L90.8299 152.459H90.815Z" fill="white"/>
<path d="M339.512 103.971C336.597 114.24 334.292 124.806 331.942 135.209C344.82 136.069 359.26 136.202 371.944 138.455C370.576 143.108 363.706 173.961 362.174 175.087C348.806 171.886 334.931 170.656 321.131 170.775L330.857 135.224C325.459 135.52 295.599 135.194 294.201 130.2L302.766 98.6061C312.12 99.5842 321.027 103.037 330.455 103.837C333.504 104.089 336.493 103.837 339.512 103.971Z" fill="white"/>
<path d="M339.511 103.971C342.842 92.2487 346.724 80.7343 351.408 69.5014C346.709 69.2643 342.664 70.7907 337.861 70.6129C329.92 70.3313 321.934 65.8115 313.562 67.323L324.477 29.7122C337.043 31.535 349.326 35.9362 362.219 35.0174L352.493 68.4048C364.94 70.4943 377.937 70.3609 389.893 74.8067L382.978 105.616C383.097 106.771 395.395 110.002 397.893 110.98C401.433 112.373 406.295 115.974 409.314 116.848C411.515 117.486 410.593 116.315 410.905 115.322C412.303 110.684 420.883 84.8096 419.411 82.5422L390.354 74.3028L404.853 38.2925C427.605 42.3677 445.569 57.7055 423.872 78.0965C427.025 77.9039 427.992 75.518 431.694 76.1404C436.959 77.0147 442.312 82.4237 447.636 83.5647L438.133 116.567C437.97 118.078 439.174 118.716 440.037 119.62C445.777 125.577 458.655 131.771 465.466 137.373C468.217 136.795 473.094 112.595 474.566 108.683C474.998 107.527 474.016 106.86 476.291 107.216C485.273 116.685 496.976 125.117 510.375 126.599L499.549 164.314C497.928 165.707 489.541 159.557 487.757 158.297C480.842 153.363 473.867 144.871 467.681 140.603C466.759 139.966 466.611 139.107 464.975 139.551L453.569 171.886C463.146 182.067 474.626 191.744 488.753 194.5L478.968 226.791C476.009 228.895 447.591 210.505 444.959 205.289C437.895 216.092 435.665 230.17 435.754 242.974C424.259 236.231 420.705 221.086 406.652 217.011L416.229 183.312L393.73 173.887C392.183 168.448 400.734 151.762 398.503 148.161C396.124 144.353 376.97 139.329 371.989 138.455C375.037 127.992 379.246 117.53 382.8 107.216C368.569 103.452 353.995 104.667 339.556 103.971H339.511ZM427.084 150.31C425.835 138.751 432.527 128.763 436.795 118.597L414.132 109.365L405.552 140.514L427.084 150.31ZM444.379 204.177L451.844 172.568C448.201 171.012 430.772 150.162 428.185 152.473L418.459 183.668L429.776 190.203L444.394 204.177H444.379Z" fill="white"/>
<path d="M155.695 174.02C153.866 177.325 136.602 180.037 136.349 183.149C139.531 188.484 141.791 192.944 141.672 199.317C141.643 200.532 142.312 202.31 140.572 202.014C139.011 195.36 128.78 190.736 128.631 184.246C128.393 174.421 149.004 175.873 155.695 174.02Z" fill="white"/>
<path d="M388.971 179.666C390.681 181.445 390.726 185.594 389.521 187.743L377.372 202.014C376.361 194.752 379.097 189.18 382.755 183.238C382.264 181.03 369.639 177.192 366.918 176.288C365.237 175.725 363.825 177.236 364.39 174.02C370.115 175.858 384.703 175.221 388.971 179.681V179.666Z" fill="white"/>
<path d="M90.8152 152.459L100.541 183.653L89.224 190.188L74.6062 204.162L67.1411 172.553C70.7844 170.997 88.2128 150.147 90.8003 152.459H90.8152Z" fill="#292929"/>
<path d="M104.868 109.365L113.448 140.514L91.9156 150.31C93.1647 138.751 86.4729 128.763 82.2051 118.597L104.868 109.365Z" fill="#292929"/>
<path d="M444.379 204.177L429.761 190.203L418.445 183.668L428.17 152.473C430.758 150.162 448.186 171.012 451.829 172.568L444.364 204.177H444.379Z" fill="#292929"/>
<path d="M427.084 150.31L405.552 140.514L414.132 109.365L436.795 118.597C432.527 128.778 425.835 138.751 427.084 150.31Z" fill="#292929"/>
<path d="M196.56 26.0519C203.779 26.0519 209.631 20.22 209.631 13.026C209.631 5.83193 203.779 0 196.56 0C189.341 0 183.489 5.83193 183.489 13.026C183.489 20.22 189.341 26.0519 196.56 26.0519Z" fill="#292929"/>
<path d="M323.882 26.0519C331.101 26.0519 336.954 20.22 336.954 13.026C336.954 5.83193 331.101 0 323.882 0C316.663 0 310.811 5.83193 310.811 13.026C310.811 20.22 316.663 26.0519 323.882 26.0519Z" fill="#292929"/>
</g>
<defs>
<clipPath id="clip0_221_9595">
<rect width="519" height="412" fill="white"/>
</clipPath>
</defs>
</svg>
