<svg width="1920" height="69" viewBox="0 0 1920 69" fill="none" xmlns="http://www.w3.org/2000/svg">
<rect y="-0.285767" width="34.2857" height="34.2857" fill="white"/>
<rect x="137.143" y="-0.285767" width="34.2857" height="34.2857" fill="white"/>
<rect x="274.286" y="-0.285767" width="34.2857" height="34.2857" fill="white"/>
<rect x="411.428" y="-0.285767" width="34.2857" height="34.2857" fill="white"/>
<rect x="548.571" y="-0.285767" width="34.2857" height="34.2857" fill="white"/>
<rect x="685.714" y="-0.285767" width="34.2857" height="34.2857" fill="white"/>
<rect x="822.857" y="-0.285767" width="34.2857" height="34.2857" fill="white"/>
<rect x="960" y="-0.285767" width="34.2857" height="34.2857" fill="white"/>
<rect x="1097.14" y="-0.285767" width="34.2857" height="34.2857" fill="white"/>
<rect x="1234.29" y="-0.285767" width="34.2857" height="34.2857" fill="white"/>
<rect x="1371.43" y="-0.285767" width="34.2857" height="34.2857" fill="white"/>
<rect x="1508.57" y="-0.285767" width="34.2857" height="34.2857" fill="white"/>
<rect x="1645.71" y="-0.285767" width="34.2857" height="34.2857" fill="white"/>
<rect x="1782.86" y="-0.285767" width="34.2857" height="34.2857" fill="white"/>
<rect x="34.2856" y="34" width="34.2857" height="34.2857" fill="white"/>
<rect x="171.428" y="34" width="34.2857" height="34.2857" fill="white"/>
<rect x="308.572" y="34" width="34.2857" height="34.2857" fill="white"/>
<rect x="445.714" y="34" width="34.2857" height="34.2857" fill="white"/>
<rect x="582.857" y="34" width="34.2857" height="34.2857" fill="white"/>
<rect x="720" y="34" width="34.2857" height="34.2857" fill="white"/>
<rect x="857.143" y="34" width="34.2857" height="34.2857" fill="white"/>
<rect x="994.286" y="34" width="34.2857" height="34.2857" fill="white"/>
<rect x="1131.43" y="34" width="34.2857" height="34.2857" fill="white"/>
<rect x="1268.57" y="34" width="34.2857" height="34.2857" fill="white"/>
<rect x="1405.71" y="34" width="34.2857" height="34.2857" fill="white"/>
<rect x="1542.86" y="34" width="34.2857" height="34.2857" fill="white"/>
<rect x="1680" y="34" width="34.2857" height="34.2857" fill="white"/>
<rect x="1817.14" y="34" width="34.2857" height="34.2857" fill="white"/>
<rect x="68.5715" y="-0.285767" width="34.2857" height="34.2857" fill="white"/>
<rect x="205.714" y="-0.285767" width="34.2857" height="34.2857" fill="white"/>
<rect x="342.857" y="-0.285767" width="34.2857" height="34.2857" fill="white"/>
<rect x="480" y="-0.285767" width="34.2857" height="34.2857" fill="white"/>
<rect x="617.143" y="-0.285767" width="34.2857" height="34.2857" fill="white"/>
<rect x="754.286" y="-0.285767" width="34.2857" height="34.2857" fill="white"/>
<rect x="891.429" y="-0.285767" width="34.2857" height="34.2857" fill="white"/>
<rect x="1028.57" y="-0.285767" width="34.2857" height="34.2857" fill="white"/>
<rect x="1165.71" y="-0.285767" width="34.2857" height="34.2857" fill="white"/>
<rect x="1302.86" y="-0.285767" width="34.2857" height="34.2857" fill="white"/>
<rect x="1440" y="-0.285767" width="34.2857" height="34.2857" fill="white"/>
<rect x="1577.14" y="-0.285767" width="34.2857" height="34.2857" fill="white"/>
<rect x="1714.29" y="-0.285767" width="34.2857" height="34.2857" fill="white"/>
<rect x="1851.43" y="-0.285767" width="34.2857" height="34.2857" fill="white"/>
<rect x="102.857" y="34" width="34.2857" height="34.2857" fill="white"/>
<rect x="240" y="34" width="34.2857" height="34.2857" fill="white"/>
<rect x="377.143" y="34" width="34.2857" height="34.2857" fill="white"/>
<rect x="514.286" y="34" width="34.2857" height="34.2857" fill="white"/>
<rect x="651.429" y="34" width="34.2857" height="34.2857" fill="white"/>
<rect x="788.571" y="34" width="34.2857" height="34.2857" fill="white"/>
<rect x="925.714" y="34" width="34.2857" height="34.2857" fill="white"/>
<rect x="1062.86" y="34" width="34.2857" height="34.2857" fill="white"/>
<rect x="1200" y="34" width="34.2857" height="34.2857" fill="white"/>
<rect x="1337.14" y="34" width="34.2857" height="34.2857" fill="white"/>
<rect x="1474.29" y="34" width="34.2857" height="34.2857" fill="white"/>
<rect x="1611.43" y="34" width="34.2857" height="34.2857" fill="white"/>
<rect x="1748.57" y="34" width="34.2857" height="34.2857" fill="white"/>
<rect x="1885.71" y="34" width="34.2857" height="34.2857" fill="white"/>
</svg>
